<svg xmlns="http://www.w3.org/2000/svg" width="734" height="722" viewBox="0 0 734 722" role="img" aria-labelledby="title desc">
<title id="title">床架装配：任务依赖与最终分配</title>
<desc id="desc">箭头从前置任务指向后续任务。节点列出连接部件及匿名机器人编号。</desc>
<defs><marker id="arrow" viewBox="0 0 10 10" refX="9" refY="5" markerWidth="6" markerHeight="6" orient="auto-start-reverse"><path d="M 0 0 L 10 5 L 0 10 z" fill="#8595a9"/></marker></defs>
<style>text{font-family:"PingFang SC","Microsoft YaHei","Noto Sans CJK SC",sans-serif}</style>
<rect width="734" height="722" rx="16" fill="#f5f8fc"/>
<text x="28" y="38" font-size="23" font-weight="600" fill="#17304e">床架装配</text>
<text x="28" y="67" font-size="14" fill="#53667d">9 个子任务 · 多分支任务依赖 · 修复后通过检验</text>
<path d="M141.0,197 C141.0,216.0 254.0,216.0 254.0,230" fill="none" stroke="#8595a9" stroke-width="1.8" marker-end="url(#arrow)"/>
<path d="M254.0,313 C254.0,332.0 254.0,332.0 254.0,346" fill="none" stroke="#8595a9" stroke-width="1.8" marker-end="url(#arrow)"/>
<path d="M254.0,429 C254.0,448.0 367.0,448.0 367.0,462" fill="none" stroke="#8595a9" stroke-width="1.8" marker-end="url(#arrow)"/>
<path d="M367.0,197 C367.0,216.0 480.0,216.0 480.0,230" fill="none" stroke="#8595a9" stroke-width="1.8" marker-end="url(#arrow)"/>
<path d="M593.0,197 L593.0,210 L714,210 L714,333 L480.0,333 L480.0,346" fill="none" stroke="#8595a9" stroke-width="1.8" marker-end="url(#arrow)"/>
<path d="M480.0,313 C480.0,332.0 480.0,332.0 480.0,346" fill="none" stroke="#8595a9" stroke-width="1.8" marker-end="url(#arrow)"/>
<path d="M480.0,429 C480.0,448.0 367.0,448.0 367.0,462" fill="none" stroke="#8595a9" stroke-width="1.8" marker-end="url(#arrow)"/>
<path d="M367.0,545 C367.0,564.0 367.0,564.0 367.0,578" fill="none" stroke="#8595a9" stroke-width="1.8" marker-end="url(#arrow)"/>
<rect x="44.0" y="119" width="194" height="78" rx="9" fill="#fff" stroke="#c5d3e5"/>
<text x="141.0" y="142" text-anchor="middle" font-size="16" font-weight="600" fill="#17304e">任务1</text>
<text x="141.0" y="165" text-anchor="middle" font-size="14" fill="#53667d">部件0 — 部件2</text>
<text x="141.0" y="185" text-anchor="middle" font-size="13" fill="#245b91">机器人：乙、丙</text>
<rect x="270.0" y="119" width="194" height="78" rx="9" fill="#fff" stroke="#c5d3e5"/>
<text x="367.0" y="142" text-anchor="middle" font-size="16" font-weight="600" fill="#17304e">任务4</text>
<text x="367.0" y="165" text-anchor="middle" font-size="14" fill="#53667d">部件3 — 部件8</text>
<text x="367.0" y="185" text-anchor="middle" font-size="13" fill="#245b91">机器人：丁</text>
<rect x="496.0" y="119" width="194" height="78" rx="9" fill="#fff" stroke="#c5d3e5"/>
<text x="593.0" y="142" text-anchor="middle" font-size="16" font-weight="600" fill="#17304e">任务5</text>
<text x="593.0" y="165" text-anchor="middle" font-size="14" fill="#53667d">部件4 — 部件9</text>
<text x="593.0" y="185" text-anchor="middle" font-size="13" fill="#245b91">机器人：甲、戊</text>
<rect x="157.0" y="235" width="194" height="78" rx="9" fill="#fff" stroke="#c5d3e5"/>
<text x="254.0" y="258" text-anchor="middle" font-size="16" font-weight="600" fill="#17304e">任务2</text>
<text x="254.0" y="281" text-anchor="middle" font-size="14" fill="#53667d">部件0 — 部件7</text>
<text x="254.0" y="301" text-anchor="middle" font-size="13" fill="#245b91">机器人：甲、丁</text>
<rect x="383.0" y="235" width="194" height="78" rx="9" fill="#fff" stroke="#c5d3e5"/>
<text x="480.0" y="258" text-anchor="middle" font-size="16" font-weight="600" fill="#17304e">任务6</text>
<text x="480.0" y="281" text-anchor="middle" font-size="14" fill="#53667d">部件5 — 部件8</text>
<text x="480.0" y="301" text-anchor="middle" font-size="13" fill="#245b91">机器人：乙、丙</text>
<rect x="157.0" y="351" width="194" height="78" rx="9" fill="#fff" stroke="#c5d3e5"/>
<text x="254.0" y="374" text-anchor="middle" font-size="16" font-weight="600" fill="#17304e">任务3</text>
<text x="254.0" y="397" text-anchor="middle" font-size="14" fill="#53667d">部件1 — 部件2</text>
<text x="254.0" y="417" text-anchor="middle" font-size="13" fill="#245b91">机器人：甲、乙</text>
<rect x="383.0" y="351" width="194" height="78" rx="9" fill="#fff" stroke="#c5d3e5"/>
<text x="480.0" y="374" text-anchor="middle" font-size="16" font-weight="600" fill="#17304e">任务7</text>
<text x="480.0" y="397" text-anchor="middle" font-size="14" fill="#53667d">部件5 — 部件9</text>
<text x="480.0" y="417" text-anchor="middle" font-size="13" fill="#245b91">机器人：丙</text>
<rect x="270.0" y="467" width="194" height="78" rx="9" fill="#fff" stroke="#c5d3e5"/>
<text x="367.0" y="490" text-anchor="middle" font-size="16" font-weight="600" fill="#17304e">任务8</text>
<text x="367.0" y="513" text-anchor="middle" font-size="14" fill="#53667d">部件2 — 部件4</text>
<text x="367.0" y="533" text-anchor="middle" font-size="13" fill="#245b91">机器人：甲、乙</text>
<rect x="270.0" y="583" width="194" height="78" rx="9" fill="#fff" stroke="#c5d3e5"/>
<text x="367.0" y="606" text-anchor="middle" font-size="16" font-weight="600" fill="#17304e">任务9</text>
<text x="367.0" y="629" text-anchor="middle" font-size="14" fill="#53667d">部件2 — 部件6</text>
<text x="367.0" y="649" text-anchor="middle" font-size="13" fill="#245b91">机器人：甲、乙</text>
<text x="28" y="704" font-size="12" fill="#64758a">箭头表示任务依赖；图中位置不表示执行时间或机器人轨迹。</text>
</svg>
